<?xml version="1.0" standalone="no"?>
<!DOCTYPE svg PUBLIC "-//W3C//DTD SVG 20010904//EN"
 "http://www.w3.org/TR/2001/REC-SVG-20010904/DTD/svg10.dtd">
<svg version="1.0" xmlns="http://www.w3.org/2000/svg"
 width="1280.000000pt" height="720.000000pt" viewBox="0 0 1280.000000 720.000000"
 preserveAspectRatio="xMidYMid meet">

<g transform="translate(0.000000,720.000000) scale(0.100000,-0.100000)"
fill="#000000" stroke="none">
<path d="M0 3600 l0 -3600 6400 0 6400 0 0 3600 0 3600 -6400 0 -6400 0 0
-3600z m1820 646 c0 -14 -5 -37 -11 -53 -7 -15 -17 -53 -23 -83 l-12 -55 -249
-5 -249 -5 -36 -140 c-20 -77 -45 -174 -54 -215 -10 -41 -26 -106 -37 -145
-29 -111 -90 -356 -100 -400 -4 -22 -22 -94 -40 -160 -17 -66 -35 -136 -39
-156 -4 -19 -10 -41 -14 -47 -8 -14 -322 -18 -329 -4 -3 4 53 239 124 522 108
430 153 610 181 730 3 13 -31 15 -244 18 -137 1 -248 4 -248 6 0 11 50 198 55
206 4 6 238 10 666 10 l659 0 0 -24z m8794 -3 c52 -4 80 -11 83 -20 3 -7 -11
-52 -32 -99 -20 -48 -39 -101 -42 -120 l-6 -34 52 0 c58 0 65 9 20 29 -41 18
-47 38 -18 64 31 28 100 105 121 135 15 23 17 23 47 8 17 -9 46 -26 64 -39 19
-12 43 -27 53 -34 17 -10 12 -17 -56 -82 l-75 -70 52 -1 c67 0 85 -7 74 -28
-5 -10 -12 -39 -16 -67 -4 -27 -12 -53 -18 -57 -7 -4 -93 -8 -192 -8 -172 0
-181 -1 -193 -21 -7 -12 -11 -23 -8 -26 2 -3 101 -4 220 -4 118 0 217 -3 220
-8 3 -5 -1 -41 -10 -80 l-16 -71 -127 0 -126 -1 33 -28 c29 -25 149 -91 164
-91 4 0 19 -5 33 -10 l27 -10 -55 -58 c-31 -31 -68 -72 -83 -89 -39 -48 -50
-45 -140 30 l-33 28 -6 -23 c-3 -13 -7 -36 -8 -53 l-2 -30 85 0 c47 0 88 -4
91 -9 4 -4 -2 -40 -13 -80 -11 -39 -24 -89 -29 -111 -34 -138 -77 -254 -103
-280 -24 -24 -104 -45 -181 -48 l-80 -2 -7 60 c-14 113 6 105 -252 105 -232 0
-249 3 -225 41 5 8 9 29 9 47 0 18 5 42 10 53 10 18 24 19 291 19 l281 0 -6
-27 c-3 -16 -8 -50 -12 -78 -6 -44 -5 -48 8 -34 22 22 45 69 53 109 3 19 9 43
11 53 5 16 -12 17 -250 17 -140 0 -257 4 -260 9 -3 4 6 42 19 82 31 94 31 96
-6 65 -17 -14 -34 -26 -38 -26 -5 0 -21 20 -37 45 -15 25 -31 45 -35 45 -7 0
-36 -126 -84 -365 -23 -113 -23 -113 -64 -140 -27 -19 -56 -27 -114 -31 l-77
-7 0 40 c0 22 -3 68 -6 102 l-7 61 34 0 c19 0 40 4 46 8 12 8 63 220 63 262 0
16 -7 20 -37 20 l-38 0 -38 -118 c-39 -119 -131 -317 -169 -362 l-20 -25 -16
24 c-9 13 -34 42 -57 66 l-41 42 45 90 c73 143 106 236 141 398 12 55 26 120
31 145 6 25 19 88 29 140 23 115 86 414 95 453 l7 27 220 0 220 0 -7 -42 c-7
-45 -34 -178 -94 -458 -42 -197 -51 -243 -48 -247 8 -7 144 97 192 146 l49 51
-82 0 c-92 0 -89 -3 -71 80 16 74 21 77 148 78 61 0 115 3 120 6 5 3 11 15 14
26 5 19 0 20 -98 20 -57 0 -106 4 -109 9 -3 5 1 41 10 80 l16 71 50 0 50 0
-44 63 c-24 34 -47 67 -51 73 -7 13 154 124 179 124 15 0 55 -58 81 -120 10
-22 21 -40 24 -40 4 0 10 15 13 34 4 19 13 57 22 85 17 58 11 56 148 44z m880
-143 c13 -47 28 -102 31 -122 8 -43 18 -36 -132 -91 -102 -37 -107 -36 -116
23 -2 19 -16 77 -31 128 -14 51 -26 97 -26 101 0 9 41 28 150 69 l75 29 12
-26 c6 -14 23 -64 37 -111z m819 50 c5 0 7 -7 4 -15 -8 -20 -74 -327 -112
-520 -8 -38 -28 -135 -44 -215 -34 -162 -42 -320 -17 -320 7 0 19 20 26 46 7
25 18 48 25 50 6 3 46 -12 89 -32 58 -28 76 -41 72 -53 -14 -46 -39 -111 -56
-148 -11 -24 -20 -45 -20 -48 0 -6 -39 -62 -55 -81 -33 -36 -114 -45 -164 -19
-30 15 -78 71 -98 115 -37 77 -57 217 -44 300 6 36 17 106 26 155 8 50 14 93
15 98 0 4 -29 7 -64 7 l-64 0 -7 -32 c-4 -18 -22 -103 -40 -188 -18 -85 -45
-213 -60 -285 -38 -189 -27 -175 -139 -175 -52 0 -97 3 -100 8 -2 4 2 34 10
67 8 33 21 94 29 135 8 41 23 118 35 170 12 52 27 130 35 172 8 42 17 88 21
102 l6 25 -89 3 c-69 2 -87 6 -85 17 2 8 9 45 16 83 7 37 15 70 17 72 2 2 44
6 94 8 l90 3 11 65 c10 53 30 158 46 231 2 11 -14 15 -64 17 -76 3 -73 -1 -57
86 21 113 -22 101 364 99 186 -2 342 -3 348 -3z m-3622 -53 c20 -17 80 -68
134 -112 54 -44 103 -85 109 -90 14 -13 189 -159 244 -204 23 -19 41 -36 39
-38 -6 -6 -947 -6 -953 0 -3 2 6 49 19 103 l23 99 132 3 131 3 10 37 c5 20 19
75 31 122 32 131 27 126 81 77z m-6245 -212 c180 -60 283 -193 284 -363 0 -78
-29 -232 -44 -232 -6 0 -227 -1 -491 -3 l-480 -2 -3 -37 c-7 -79 80 -189 177
-223 96 -35 326 -29 470 11 48 14 60 14 127 -2 41 -10 74 -23 74 -28 0 -14
-154 -112 -201 -129 -19 -7 -36 -15 -39 -18 -11 -13 -160 -59 -239 -73 -215
-41 -443 2 -574 108 -50 40 -106 127 -123 191 -38 142 13 369 115 505 101 136
235 231 411 290 136 46 406 49 536 5z m2878 9 c81 -21 136 -44 136 -58 0 -31
-75 -316 -83 -316 -6 0 -28 18 -49 40 -97 98 -160 125 -298 124 -144 -1 -234
-32 -353 -122 -127 -97 -187 -292 -127 -412 74 -147 324 -193 535 -99 35 16
114 66 164 103 19 14 38 23 42 19 4 -5 -10 -75 -32 -158 -21 -82 -39 -153 -39
-157 0 -12 -156 -57 -252 -73 -199 -31 -371 -11 -528 63 -19 9 -37 19 -40 22
-3 3 -20 17 -39 30 -99 69 -164 183 -170 299 -12 241 144 463 428 608 108 55
227 92 334 103 107 11 296 3 371 -16z m1212 -9 c237 -89 328 -277 259 -535 -8
-30 -18 -56 -23 -58 -5 -1 -224 -4 -488 -5 l-479 -2 -3 -34 c-8 -80 66 -179
166 -223 69 -30 226 -35 366 -13 60 9 121 21 135 27 19 7 47 5 103 -9 43 -10
78 -21 78 -25 0 -13 -104 -80 -189 -122 -169 -84 -330 -121 -491 -113 -360 19
-543 200 -507 503 37 320 335 599 677 634 41 5 133 6 204 3 103 -4 142 -9 192
-28z m-2652 -11 c80 -20 134 -46 177 -86 50 -47 69 -102 69 -202 0 -72 -12
-134 -85 -428 -47 -188 -90 -353 -95 -365 -9 -22 -13 -23 -165 -23 -145 0
-155 1 -155 19 0 10 36 164 81 342 69 277 80 334 77 390 -2 42 -9 72 -19 81
-46 46 -146 65 -255 48 -125 -20 -203 -90 -257 -232 -15 -40 -58 -198 -97
-351 -38 -152 -72 -282 -75 -287 -7 -12 -311 -14 -318 -2 -3 4 22 113 55 242
33 129 66 262 73 295 8 33 26 105 41 160 14 55 35 136 45 180 32 137 44 180
51 191 5 8 51 -3 152 -37 l145 -49 36 24 c43 30 161 75 235 92 79 17 212 17
284 -2z m4035 5 c124 -20 206 -72 248 -156 46 -95 40 -150 -61 -558 -48 -193
-91 -360 -96 -372 -9 -22 -13 -23 -164 -23 -85 0 -157 3 -159 8 -3 4 32 147
76 317 70 271 80 321 81 401 1 99 -2 107 -64 140 -50 26 -196 26 -268 -1 -94
-34 -143 -89 -195 -215 -10 -25 -52 -177 -92 -338 -41 -161 -77 -297 -80 -303
-7 -11 -312 -13 -318 -1 -3 4 26 131 65 282 38 151 84 338 103 415 18 77 37
151 43 165 5 14 17 64 27 112 10 47 21 91 24 97 6 10 222 -55 263 -79 25 -15
34 -13 76 15 127 84 323 122 491 94z m3465 -105 c8 -3 13 -11 11 -17 -2 -7
-11 -48 -20 -92 -9 -44 -25 -120 -36 -170 -37 -177 -47 -230 -44 -233 3 -4 27
15 74 58 79 72 83 74 98 54 7 -10 13 -24 13 -31 0 -7 9 -27 20 -45 32 -52 26
-68 -48 -132 -85 -74 -259 -234 -336 -308 -32 -32 -62 -58 -65 -57 -11 1 -49
54 -82 114 l-31 57 50 52 c63 64 65 69 91 196 12 58 27 125 33 150 5 25 16 77
24 115 7 39 16 80 19 93 5 22 4 22 -85 22 -82 0 -91 2 -86 18 2 9 10 44 17 77
7 33 17 66 22 73 7 9 55 12 177 12 93 0 175 -3 184 -6z m-2560 -201 c-3 -16
-12 -50 -20 -78 -8 -27 -52 -201 -98 -385 l-84 -335 -153 -3 c-84 -1 -156 1
-160 5 -4 5 38 191 94 415 l102 408 163 0 162 0 -6 -27z"/>
<path d="M10356 4019 l-59 -39 51 0 c50 0 52 1 67 36 23 57 22 57 -59 3z"/>
<path d="M9799 3973 c-6 -16 -13 -50 -16 -76 -3 -26 -10 -50 -14 -53 -5 -3 -9
-16 -9 -30 0 -23 3 -25 42 -22 l43 3 21 90 c11 50 19 96 16 103 -2 7 -19 12
-38 12 -28 0 -36 -5 -45 -27z"/>
<path d="M9765 3632 c-40 -5 -44 -10 -55 -73 -5 -30 -12 -69 -16 -86 -6 -33
-6 -33 34 -33 46 0 43 -4 67 109 8 41 12 77 8 81 -5 3 -21 4 -38 2z"/>
<path d="M10397 3590 c-24 -29 -16 -36 37 -32 36 3 46 8 46 22 0 34 -56 41
-83 10z"/>
<path d="M10207 3388 c-22 -17 -21 -18 31 -18 58 0 61 -5 37 -64 l-15 -36 75
0 c73 0 75 0 81 28 3 15 10 42 15 61 5 19 7 36 6 37 -1 1 -48 4 -105 6 -85 2
-106 0 -125 -14z"/>
<path d="M11937 3963 c-2 -5 -9 -33 -16 -63 -42 -198 -49 -235 -46 -241 8 -12
122 -10 133 3 5 7 21 72 35 143 14 72 29 138 32 148 6 15 0 17 -63 17 -39 0
-73 -3 -75 -7z"/>
<path d="M2065 3681 c-73 -12 -173 -66 -227 -123 -27 -28 -45 -54 -42 -59 7
-13 601 -12 609 1 22 35 -49 137 -116 167 -35 15 -163 23 -224 14z"/>
<path d="M6150 3680 c-25 -4 -70 -19 -100 -32 -58 -26 -170 -121 -170 -144 0
-12 50 -14 303 -14 167 0 306 3 310 6 10 10 -21 95 -44 120 -52 55 -189 85
-299 64z"/>
</g>
</svg>
